<svg version="1.2" xmlns="http://www.w3.org/2000/svg" viewBox="0 0 1024 1024" width="1024" height="1024">
	<title>logo</title>
	<style>
		.s0 { opacity: 1;fill: #fde8a7 } 
		.s1 { fill: #fde7a5 } 
		.s2 { opacity: 1;fill: #20132a } 
		.s3 { fill: #d26f33 } 
		.s4 { opacity: 1;fill: #e96612 } 
		.s5 { opacity: 1;fill: #fde834 } 
		.s6 { fill: #4e242d } 
		.s7 { fill: #fcae09 } 
		.s8 { fill: #f9e79c } 
		.s9 { fill: #fbf4e0 } 
	</style>
	<g id="Background">
		<path id="Path 0" class="s0" d="m0 36v-36h28v9l-5 4-7 17-7 6zm1024-12l-16-2-8-5-4-8v-9h28zm-1024 164v-44h10l3 4 3 8v24l-7 8zm0 124v-80h11l4 6 2 67-6 7zm0 124v-48l12 1 2 15-4 8v22zm0 124v-40h11l5 4v28l-6 8zm0 264v-212h9l7 7 3 150-3 49-6 6zm1024-96h-9l-7-7v-68l6-5h10zm0 160h-9l-7-7v-35l6-6h10zm-1024 88v-96h9l9 13-2 45 2 25-9 13zm1024 8h-10l-6-6v-35l7-7h9zm-1024 40v-16h11l5 4v12zm56 0l2-13 15-3 19 8 93-3 6 3h13l2 8zm888 0v-8l7-3 73-1v12zm-316 0l1-6 68-5 3 2v9zm192 0v-7l11-4h50l3 2v9zm-504 0l1-8 15-2 49 3 1 7z"/>
		<path id="Path 1" class="s1" d="m0 36h9l7-6 7-17 5-4v-9h968v9l4 8 8 5 16 2v624h-10l-6 5v68l7 7h9v112h-10l-6 6v35l7 7h9v48h-9l-7 7v35l6 6h10v28l-73 1-7 3v8h-60v-9l-3-2h-50l-11 4v7h-120v-9l-3-2-68 5-1 6h-246l-1-7-49-3-15 2-1 8h-110l-2-8h-13l-6-3-93 3-19-8-15 3-2 13h-40v-12l-5-4h-11v-32h9l9-13-2-25 2-45-9-13h-9v-56h10l6-6 3-49-3-150-7-7h-9v-52h10l6-8v-28l-5-4h-11v-84l10-2v-22l4-8-2-15-12-1v-76h11l6-7-2-67-4-6h-11v-44h9l7-8v-24l-3-8-3-4h-10z"/>
		<path id="Path 2" class="s2" d="m229 702l-7-14-3-16v-173l-10-16-3-13v-84l11-27 21-20 240-116 26-9 20-1 30 8 248 120 17 17 9 18 3 15v65l-2 22-10 20v174l-6 22-18 23-181 90-57 27-22 7h-30l-15-4-247-119z"/>
		<path id="Path 3" class="s0" d="m229 702l-1 2-23-2-8-7-2-11-3-2v-161l3-3 1-15-5-23-7-4-1-8-6-4-1-82 20-23v-9l8-2 5-5 2-9h7l3-3 1-12 13-13 21-4 14-14 18-6 111-58 18-1 17-11 30-10 8-8 9-2 5 1 4 6h8l9 5h15l4-4 27 1 31 17 52 19 15 11 19 6 20 13 7 1 13 9 11 2 6 6 40 20 12 3 6 7 10 3 9 11-2 12-248-120-30-8-20 1-26 9-240 116-21 20-11 27v84l3 13 10 16v173l3 16zm566 15l18-23 6-22v-174l10-20 2-22 14 2 3 10-1 29-6 7-5 14v179l-7 20-9 10-21 1z"/>
		<path id="Path 4" class="s3" d="m243 718l247 119 15 4h30l22-7 57-27 181-90 4 11-3 14-8 8-191 91-53 23-37 2-21-5-234-110-9-7-5-11v-7z"/>
		<path id="Path 5" class="s4" d="m450 322l10-13 2 3h25l3 5-17 1-12 12-3-4h-6zm123 30l6 4 5-9 12 28 1 17-5 6-11 1-8-6-2-19-11-22zm147 68h7l42-23 25-1 9-4 1 75-5 13-15 14-60 28-3-6zm-232 184l3-4 17-1 10-9 3-69 33-15 4-6 19-7 2-4 19-8 3-4 28-5-1 97-97 44h-23zm-242-54l2-30 66 31 1 19h-5l-44-22zm419-11l17-5 8-9v-5l5 4 2 68-8 12-10 4-8-6-3-7v-46zm57 23h6l4-6h6l25-15 29-1v130l-7 17-10 11-233 113-33 3-25-11 3-5h23l8-10-1-119-85-41-10 1-2 29-8 10h-17l-23-12-7-6v-8h18l17-10 7-14 1-21 88 41 39 2 16-6 3 6h6l33-14 6-6h7l3-4 20-1 5 13 7 8 17 7 11-1 2 10h20l13-10-1-16 10-10 7-14z"/>
		<path id="Path 6" class="s5" d="m452 266l5 2 36-17 24-4 26 3 42 20 6-1 6 3-1 2-42 17-27-14-29-7-21 2-21 9-16-8zm-186 91l65-32 18-2 72 33-61 30-24 11-70-34zm428 37l-76-35v-4l66-30 17-2 71 34-1 7-58 28-9 3-1 3zm-457-14l3-6 6 1 4 5zm199 59l83-39 83 40-2 4-20 10-47 22-25 1-69-32zm-95 84l7-5 4 1-6 4 2 9v3l-9-4z"/>
		<path id="Path 7" class="s0" d="m452 266l44-21 21-4v6l-24 4-36 17zm261 126l58-28 1-7 18 9 5 7-12 10-58 27-1-10zm-133 62l20-10 2-4h2l13 6 7 10-36 17v-13z"/>
		<path id="Path 8" class="s6" d="m336 397l24-11v17l3 4-6 4-9 6-3 1-1 10 14 4 24 13h5l3-6 8-7 22-11v13l7 3 1 4-16 13-8-6h-17l-3 3v81l-1 9-7 6v51l-5 6-7-1 5-7 2-55 7-9-26-13-4-1-7 5-1-103-6-4h-16v-2zm270 14v-4l17-20 3 3v10l-6 6zm78 2l10-8v-11l9 4 15 16v2h-14l-8 6-1 102-5-4h-8l-22 11 5 8 3 10v46l3 7 8 6-10 2-5-3-3-7-1-53-7-5-1-8-1-84-16-2-10 8h-1l-7-10-13-6 12-13v-5l20 8 13 13h7l35-18v-6z"/>
		<path id="Path 9" class="s3" d="m411 285l26 10-12 19-3 11-48-20zm210 0l8 1 35 17-1 3-58 26-24-28zm-160 45l-4 25-9-3-4-4v-12l6-14 2 4h6zm-98 77l75-36 10-2 35 18-54 26-9 8-22 11-41-21zm260-20l5-1 56 27 7 6v6l-35 18h-7l-13-13-20-8-13-8 3-3 14-5 6-6v-10zm-233 52l-3 6h-5l-24-13-14-4 1-10 3-1-1 3zm332 123l2-12 65-31h3v21l-29 1-25 15h-6l-4 6zm-171 72l75-37h3v18l-20 1-3 4h-7l-6 6-33 14h-6zm118 8l34-16 1 16-13 10h-20z"/>
		<path id="Path 10" class="s7" d="m460 309l7-5 33 4 39 17 19 10 15 17h-13l-12-10-58-25-3-5h-25zm265 101l58-27 12-10 6 8 2 11-9 4-25 1-42 23h-7l-2-4v-2zm-407 6l-3 10v96l-7-2-52-24-19-16-5-14v-73l5-13h13l68 34zm170 188l-80-37v-103l4-8 76 38 20 7h21l10-3 49-25 36-17h1l4 16-28 5-3 4-19 8-2 4-19 7-4 6-33 15-3 69-10 9-17 1zm177-65l-5-8 22-11h8v5l-8 9zm-301 64l-10 4-10-5-4-6-1-65 9 4-1 31 5 7h6l3-4v-27l5-3 5 2-2 55zm-118-53l20-2 44 22h5l1 30 9 18 11 10 29 14v8l7 6 23 12h17l8-10 2-29 10-1 85 41 1 119-8 10h-23l-3 5-205-97-24-16-9-20z"/>
		<path id="Path 11" class="s8" d="m348 535v-3l7 5 11 2-5 3v27l-3 4h-6l-5-7z"/>
		<path id="Path 12" class="s1" d="m517 247v-6l22 3 52 25-6 1-42-20z"/>
		<path id="Path 13" class="s9" d="m467 304l23-8 23 4 48 22 13 10 10 15-5 9-6-4-15-17-19-10-39-17zm-227 70l14-13 12-4v6l70 34-18 17-68-34-4-5zm463 24l1-3 9-3 11 8 1 10-7 4zm-355 19l9-6 41 21-8 7-43-19zm80 24l8-2 3 6 69 32 25-1 47-22 8 6v13l-49 25-10 3h-21l-20-7-76-38v-2zm-80 91l-2-9 6-4 26 13-7 9-5-2-11-2zm162-102h18l8 6v10l-3 3-21 3-12-8 1-9z"/>
	</g>
</svg>